<?xml version="1.0" encoding="utf-8"?>
<!-- Generator: Adobe Illustrator 19.2.1, SVG Export Plug-In . SVG Version: 6.00 Build 0)  -->
<svg version="1.1" id="layer" xmlns="http://www.w3.org/2000/svg" xmlns:xlink="http://www.w3.org/1999/xlink" x="0px" y="0px"
	 viewBox="0 0 652 652" style="enable-background:new 0 0 652 652;" xml:space="preserve">
<style type="text/css">
	.st0{fill:#FF7300;}
	.st1{fill:#FFFFFF;}
</style>
<path class="st0" d="M243.4,214.6l-50.5,128.7l-50.5-137.5L88.8,343.3L43,214.6H21.8L87.7,395l54.1-137.5L192.3,395l72.3-180.4
	H243.4z M345.1,306.3c-8.2-7.1-17.6-12.3-27-16.5c0,0-25.3-12.9-31.1-17s-8.2-10-8.2-17c0-7.1,2.9-13.5,8.8-18.2
	c5.9-4.7,12.9-7.1,21.2-7.1c5.3,0,10,1.2,13.5,2.9c3.5,2.4,7.6,5.3,10.6,10c0,0,2.9,4.1,4.1,5.3l14.7-10c-5.3-8.8-11.2-15.3-18.8-20
	s-15.3-7.1-24.1-7.1c-14.7,0-26.4,4.1-35.8,12.3c-9.4,8.2-14.1,18.8-14.1,31.7c0,12.3,4.1,21.7,12.3,28.2
	c8.8,7.1,34.1,19.4,34.1,19.4c9.4,4.7,17,9.4,23.5,13.5c6.5,4.7,10,11.2,10,20c0,10-3.5,18.2-10,24.7c-6.5,6.5-14.7,10-25.3,10
	c-8.8,0-16.5-2.9-22.3-8.2c-5.9-5.3-10-13.5-12.3-23.5l-18.8,5.9c1.8,7.1,4.1,12.9,7.1,18.8c2.9,5.3,7.1,10,11.8,14.1
	c9.4,7.6,20.6,11.8,34.7,11.8c14.7,0,27.6-5.3,38.2-15.3s15.9-22.9,15.9-37.6C357.4,323.4,353.3,313.4,345.1,306.3z M456.7,383.3
	c46.4,0,84-37.6,84-84s-37.6-84-84-84s-84,37.6-84,84C372.7,345.7,410.9,383.3,456.7,383.3z"/>
<polygon class="st1" points="491.4,346.3 456.7,262.8 433.2,315.7 373.9,315.7 373.9,304.5 425.6,304.5 457.3,234 492.6,319.8 
	506.7,294.6 540.8,294.6 540.8,305.7 513.7,305.7 "/>
<path d="M526.1,231.7c-18.2-18.8-41.1-28.2-68.8-28.2c-0.6,0-1.2,0-1.2,0c-17,0-33.5,4.1-48.2,12.9c-14.7,8.8-26.4,20.6-35.3,35.8
	s-12.9,31.7-12.9,49.4c0,26.4,9.4,49.4,28.2,68.2c18.8,18.8,41.7,28.2,69.3,28.2l0,0c27,0,50-9.4,68.8-28.2
	c18.8-18.8,28.2-41.7,28.2-68.8C554.9,273.4,545.5,249.9,526.1,231.7z M525.5,340.4c-7.1,12.3-16.5,21.7-28.2,28.8
	c-12.3,7.1-25.3,10.6-39.4,10.6c0,0,0,0-0.6,0c-21.7,0-40-7.6-55.2-22.3c-15.3-15.3-22.9-33.5-22.9-55.8c0-14.7,3.5-28.2,10-40.5
	c7.1-11.8,16.5-21.7,28.8-28.8c12.3-7.1,25.3-10.6,38.8-10.6c0,0,0,0,0.6,0c13.5,0,27,3.5,38.8,10.6c12.3,7.1,21.7,16.5,28.8,28.2
	c7.1,11.8,10,25.3,10,40C535.5,315.1,531.9,328.6,525.5,340.4z M561.3,294.6c4.1-1.2,8.8-1.8,14.1-1.8c12.9,0,23.5,4.1,31.7,12.9
	c8.2,8.2,12.3,18.2,12.3,30c0,8.2-1.8,15.9-5.9,22.9s-11.2,16.5-22.3,28.8L556,425.6h65.8v12.9h-97.6l54.1-58.8
	c11.2-11.8,18.2-20.6,21.7-26.4s4.7-11.8,4.7-18.2c0-8.2-2.9-14.7-8.8-20.6c-5.9-5.9-13.5-8.8-21.7-8.8c-4.7,0-9.4,0.6-13.5,2.9
	C560.7,305.7,561.3,295.7,561.3,294.6z"/>
</svg>
